<?xml version="1.0" encoding="utf-8"?>
<!-- Generator: Adobe Illustrator 26.0.2, SVG Export Plug-In . SVG Version: 6.00 Build 0)  -->
<svg version="1.1" id="Layer_1" xmlns="http://www.w3.org/2000/svg" xmlns:xlink="http://www.w3.org/1999/xlink" x="0px" y="0px"
	 viewBox="0 0 511 511" style="enable-background:new 0 0 511 511;" xml:space="preserve">
<style type="text/css">
	.st0{fill:#374C86;}
</style>
<path class="st0" d="M0,341c0-20.7,0-41.4,0.4-62.7c2.3-14.2,10.2-24.2,18.9-32.1c-2.6-3.3-5.4-5.9-7.1-9.2C7.8,229.2,4,221,0,213
	c0-20.7,0-41.4,0.4-62.7c1.6-4.8,1.9-9.4,4.1-13c11-18.5,22.4-36.7,33.8-55C48.8,65.2,59.5,48.2,70,31.1C75.5,22,81.3,13.2,90.8,7.9
	c6-3.3,12.8-5.3,19.2-7.9c97,0,194,0,291.7,0.4c4.8,1.6,9.1,2.4,13,4c14,5.7,21.9,17.4,29.4,29.8c12.5,20.6,25.5,40.9,38,61.5
	c10.7,17.7,23.8,34.2,30,54.4c0,20.7,0,41.4-0.4,62.7c-2.9,13.5-9.5,24.1-19.3,31.9c4.6,6.1,9.5,11.6,13.3,17.8
	c2.9,4.8,4.3,10.4,6.4,15.6c0,20.7,0,41.4-0.4,62.7c-2.9,13.5-9.5,24.1-19.3,31.9c4.6,6.1,9.5,11.6,13.3,17.8
	c2.9,4.8,4.3,10.4,6.4,15.6c0,20.7,0,41.4-0.4,62.7c-3.6,16.4-11.9,28.6-26.1,36.3c-5.2,2.8-11,4.7-16.5,7
	c-141.7,0-283.4,0-425.7-0.4c-15.7-3.4-27.6-11.3-35.5-24.4C4.5,481.6,2.6,475.1,0,469c0-20.7,0-41.4,0.4-62.7
	c2.3-14.2,10.2-24.2,18.9-32.1c-2.6-3.3-5.4-5.9-7.1-9.2C7.8,357.2,4,349,0,341z M34.8,234.9c4.6,0.9,9.1,2.5,13.7,2.5
	c137.9,0.1,275.8,0.1,413.8,0c4.2,0,8.7-0.8,12.7-2.2c11.6-4.1,20.8-17.2,20.9-30.7c0.1-16.6,0.2-33.2-0.1-49.7
	c-0.1-7.6-3.1-14.3-7.7-20.2c-7.9-10.1-18.5-12.9-30-12.9c-135-0.1-270-0.1-405,0c-4.2,0-8.5,0.2-12.5,1.3
	C26,127,15,140.3,15.1,157.3c0.1,15.3-0.1,30.6,0.1,45.9C15.4,217.7,21.9,228,34.8,234.9z M15.1,434.9c0,8.9,0,17.8,0,26.7
	c0.1,16.7,14.7,31.4,31.3,31.4c138.7,0,277.3,0,416-0.1c4.2,0,8.7-0.7,12.7-2.1c11.6-4,20.7-16.1,20.8-29.1
	c0.1-15.6,0.2-31.2-0.1-46.8c-0.1-7-3-13.1-7.4-18.5c-7.9-9.7-18.8-12.4-30.4-12.4c-126-0.1-252-0.1-378,0c-11.6,0-23.1,1-34.7,0.9
	c-11.3-0.1-25,10.9-28.3,21.8C14.1,415.8,15.9,424.8,15.1,434.9z M271.4,365.4c63.5,0,127-0.3,190.5,0.2c18.5,0.2,34.9-15.8,34-34.4
	c-0.7-14.8,0.1-29.7-0.2-44.6c-0.1-7-3-13.2-7.5-18.7c-7.9-9.8-18.8-12.4-30.4-12.4c-124.9-0.1-249.9-0.1-374.8,0
	c-12.6,0-25.2,0.8-37.7,1c-15.9,0.2-30.3,15.9-30.1,32.2c0.2,15,0,30.1,0.1,45.1c0.1,16.7,14.7,31.5,31.3,31.5
	C121.1,365.4,195.7,365.4,271.4,365.4z M409,18.2c-3.6-0.8-7.1-2.4-10.7-2.4c-95.5-0.1-191-0.2-286.6,0c-9.7,0-18.1,4.8-23.6,13.6
	c-8.2,13-16.3,26.1-24.3,39.4C56.5,81,49.5,93.4,42.2,105.9c142,0,283.7,0,425.7,0c-1.3-2.4-2.5-4.6-3.8-6.8
	c-11.1-18.5-22-37.1-33.3-55.5C425.1,34.2,420.6,23.4,409,18.2z"/>
<path class="st0" d="M364,152c24.5,0,48.5,0,72.5,0c7.7,0,11.5,2.9,11.5,8.6c0,5.4-4,8.4-11.3,8.4c-56.5,0-113,0-169.5,0
	c-7.5,0-11.3-3-11.3-8.8c0-5.3,4.1-8.2,11.5-8.2C299.5,152,331.5,152,364,152z"/>
<path class="st0" d="M364,185.8c24.5,0,48.5,0,72.5,0c7.7,0,11.5,2.9,11.5,8.6c0,5.4-4,8.4-11.3,8.4c-56.5,0-113,0-169.5,0
	c-7.5,0-11.3-3-11.3-8.8c0-5.3,4.1-8.2,11.5-8.2C299.5,185.8,331.5,185.8,364,185.8z"/>
<path class="st0" d="M363,285.2c24.5,0,48.5,0,72.5,0c7.7,0,11.5,2.9,11.5,8.6c0,5.4-4,8.4-11.3,8.4c-56.5,0-113,0-169.5,0
	c-7.5,0-11.3-3-11.3-8.8c0-5.3,4.1-8.2,11.5-8.2C298.5,285.1,330.5,285.2,363,285.2z"/>
<path class="st0" d="M363,319.2c24.5,0,48.5,0,72.5,0c7.7,0,11.5,2.9,11.5,8.6c0,5.4-4,8.4-11.3,8.4c-56.5,0-113,0-169.5,0
	c-7.5,0-11.3-3-11.3-8.8c0-5.3,4.1-8.2,11.5-8.2C298.5,319.2,330.5,319.2,363,319.2z"/>
<path class="st0" d="M359.4,410.9c24.5,0,48.5,0,72.5,0c7.7,0,11.5,2.9,11.5,8.6c0,5.4-4,8.4-11.3,8.4c-56.5,0-113,0-169.5,0
	c-7.5,0-11.3-3-11.3-8.8c0-5.3,4.1-8.2,11.5-8.2C294.9,410.9,326.9,410.9,359.4,410.9z"/>
<path class="st0" d="M359.4,444c24.5,0,48.5,0,72.5,0c7.7,0,11.5,2.9,11.5,8.6c0,5.4-4,8.4-11.3,8.4c-56.5,0-113,0-169.5,0
	c-7.5,0-11.3-3-11.3-8.8c0-5.3,4.1-8.2,11.5-8.2C294.9,444,326.9,444,359.4,444z"/>
<path class="st0" d="M73.3,213c-9.5-2.7-16.5-7.8-21.2-16.3c-6-10.8-4.9-25.3,2.3-34.6c7.7-10,18.1-14.5,30.6-13.1
	c10.9,1.2,22,8.8,26.4,21.8c5.9,17.5-4.1,36.7-21.5,41.4C84.9,213.7,79.2,212.8,73.3,213z M65.1,181c0,8.9,7.2,16,16,16
	s16-7.2,16-16s-7.2-16-16-16S65.1,172.2,65.1,181z"/>
<path class="st0" d="M72.6,340.7c-9.5-2.7-16.5-7.8-21.2-16.3c-6-10.8-4.9-25.3,2.3-34.6c7.7-10,18.1-14.5,30.6-13.1
	c10.9,1.2,22,8.8,26.4,21.8c5.9,17.5-4.1,36.7-21.5,41.4C84.2,341.4,78.5,340.5,72.6,340.7z M64.4,308.7c0,8.9,7.2,16,16,16
	s16-7.2,16-16c0-8.9-7.2-16-16-16S64.4,299.9,64.4,308.7z"/>
<path class="st0" d="M73.7,469.1c-9.5-2.7-16.5-7.8-21.2-16.3c-6-10.8-4.9-25.3,2.3-34.6c7.7-10,18.1-14.5,30.6-13.1
	c10.9,1.2,22,8.8,26.4,21.8c5.9,17.5-4.1,36.7-21.5,41.4C85.3,469.8,79.6,468.9,73.7,469.1z M65.5,437.1c0,8.9,7.2,16,16,16
	s16-7.2,16-16s-7.2-16-16-16S65.5,428.3,65.5,437.1z"/>
</svg>
