<svg width="498" height="498" viewBox="0 0 498 498" fill="none" xmlns="http://www.w3.org/2000/svg">
<path d="M497.075 313.344C497.076 365.913 497.08 417.951 497.076 469.989C497.075 486.716 486.767 497.075 470.101 497.075C322.306 497.078 174.511 497.077 26.7159 497.071C10.462 497.07 0.0532528 486.585 0.0528333 470.224C0.0490334 322.429 0.0492971 174.634 0.0525659 26.8388C0.0529291 10.4638 10.4169 0.0536491 26.7354 0.0531787C174.53 0.048919 322.325 0.0497758 470.12 0.0544285C486.781 0.054951 497.072 10.3963 497.073 27.1351C497.077 122.361 497.075 217.587 497.075 313.344ZM391.401 481.141C417.767 481.141 444.134 481.146 470.5 481.138C478.46 481.135 481.138 478.424 481.138 470.378C481.142 342.792 481.142 215.205 481.13 87.6188C481.13 85.9268 480.962 84.2348 480.873 82.5525C325.698 82.5525 170.96 82.5525 15.9824 82.5525C15.9824 84.8604 15.9824 86.7991 15.9824 88.7377C15.9823 215.616 15.9821 342.495 15.9824 469.373C15.9824 478.846 18.2768 481.141 27.7529 481.141C148.615 481.142 269.477 481.141 391.401 481.141ZM36.6932 66.1295C184.75 66.1295 332.806 66.1295 481.139 66.1295C481.139 52.9078 481.139 40.3677 481.138 27.8275C481.137 18.2753 478.878 15.9846 469.452 15.9845C322.196 15.9843 174.941 15.9845 27.6857 15.9849C26.2698 15.9849 24.8342 15.8374 23.4416 16.0186C19.3121 16.556 16.2149 18.9974 16.1257 23.0382C15.8106 37.3047 16.0031 51.5825 16.0031 65.72C16.9155 65.933 17.2473 66.0768 17.5798 66.0783C23.5969 66.1056 29.6141 66.1157 36.6932 66.1295Z" fill="#374C86"/>
<path d="M306.126 144.486C306.124 192.079 306.126 239.142 306.12 286.204C306.119 295.72 303.678 298.226 294.315 298.227C216.822 298.237 139.328 298.236 61.8348 298.229C52.4587 298.229 49.9344 295.682 49.9338 286.298C49.9307 233.22 49.9299 180.142 49.9338 127.065C49.9344 118.793 52.7986 115.821 60.9501 115.819C138.974 115.804 216.999 115.804 295.023 115.819C303.309 115.82 306.078 118.641 306.123 126.971C306.154 132.632 306.128 138.294 306.126 144.486ZM129.087 131.862C108.105 131.862 87.1239 131.862 66.3335 131.862C66.3335 175.696 66.3335 218.848 66.3335 262.798C71.5349 255.031 76.2456 248.029 80.9247 241.005C92.6726 223.37 104.346 205.685 116.175 188.105C120.847 181.162 127.133 181.219 131.844 188.023C134.05 191.211 136.108 194.502 138.272 197.719C145.476 208.425 152.699 219.118 160.253 230.32C161.685 228.086 162.72 226.504 163.723 224.902C178.2 201.773 192.635 178.617 207.167 155.523C212.221 147.491 218.475 147.593 223.506 155.626C239.971 181.913 256.416 208.212 272.883 234.498C278.318 243.173 283.798 251.82 289.701 261.184C289.701 217.486 289.701 174.801 289.701 131.862C236.27 131.862 183.209 131.862 129.087 131.862ZM158.874 282.194C200.366 282.194 241.858 282.194 284.227 282.194C261.004 245.053 238.444 208.972 215.411 172.136C192.353 209.007 169.774 245.109 146.582 282.194C151.205 282.194 154.521 282.194 158.874 282.194ZM81.3401 268.802C78.6388 272.984 75.9374 277.165 72.6917 282.189C91.2477 282.189 108.7 282.255 126.149 282.055C127.449 282.04 129.092 280.353 129.955 279.037C134.497 272.108 138.194 264.521 143.406 258.163C150.758 249.194 150.98 241.749 143.24 232.665C136.134 224.324 130.723 214.539 124.1 204.699C109.656 226.365 95.7192 247.269 81.3401 268.802Z" fill="#374C86"/>
<path d="M165.505 423.787C165.505 428.736 165.63 433.16 165.476 437.575C165.244 444.222 162.188 447.172 155.521 447.179C123.522 447.215 91.5228 447.216 59.5236 447.185C52.7707 447.179 49.9466 444.304 49.9414 437.501C49.917 405.678 49.9192 373.856 49.9409 342.034C49.9459 334.726 52.849 331.67 60.1697 331.655C91.6384 331.59 123.107 331.595 154.576 331.646C162.439 331.659 165.48 334.933 165.49 343.171C165.521 369.866 165.504 396.562 165.505 423.787ZM105.723 347.689C92.519 347.689 79.3149 347.689 66.1997 347.689C66.1997 375.93 66.1997 403.458 66.1997 430.92C94.0162 430.92 121.53 430.92 148.954 430.92C149.167 430.297 149.374 429.975 149.374 429.652C149.406 403.636 149.362 377.62 149.508 351.605C149.528 348.039 147.964 347.617 145.013 347.643C132.271 347.758 119.528 347.69 105.723 347.689Z" fill="#374C86"/>
<path d="M331.634 341.543C333.086 333.696 335.304 331.65 342.518 331.64C373.995 331.595 405.473 331.59 436.95 331.656C444.255 331.671 447.181 334.746 447.186 342.033C447.205 373.688 447.204 405.342 447.185 436.997C447.18 444.492 444.499 447.18 437.026 447.185C405.902 447.206 374.778 447.198 343.654 447.197C334.213 447.197 331.646 444.696 331.642 435.384C331.627 404.26 331.634 373.136 331.634 341.543ZM347.687 425.191C347.687 427.084 347.687 428.977 347.687 430.852C375.884 430.852 403.506 430.852 430.891 430.852C430.891 402.993 430.891 375.509 430.891 347.693C404.076 347.693 377.595 347.745 351.115 347.637C347.041 347.621 347.689 350.175 347.689 352.597C347.685 376.455 347.686 400.314 347.687 425.191Z" fill="#374C86"/>
<path d="M190.998 357.948C190.998 352.112 190.938 346.805 191.014 341.5C191.114 334.584 194.007 331.736 201.231 331.65C210.25 331.543 219.271 331.619 228.291 331.62C250.399 331.623 272.507 331.611 294.615 331.639C303.482 331.65 306.112 334.227 306.116 342.884C306.132 374.012 306.131 405.14 306.115 436.268C306.111 444.845 303.73 447.186 295.091 447.189C263.963 447.198 232.835 447.2 201.707 447.192C193.444 447.19 191.004 444.766 190.999 436.476C190.981 410.477 190.996 384.478 190.998 357.948ZM207.049 408.393C207.049 415.922 207.049 423.451 207.049 430.995C235.01 430.995 262.346 430.995 289.857 430.995C289.857 403.252 289.857 375.745 289.857 348.078C262.194 348.078 234.748 348.078 207.049 348.078C207.049 368.089 207.049 387.71 207.049 408.393Z" fill="#374C86"/>
<path d="M404.676 149.417C415.806 149.419 426.405 149.394 437.004 149.432C443.392 149.455 446.989 152.177 447.175 156.993C447.368 161.977 443.507 165.463 437.178 165.476C405.382 165.545 373.585 165.54 341.788 165.466C335.894 165.452 331.918 162.038 331.8 157.433C331.676 152.578 335.604 149.447 342.141 149.434C362.809 149.391 383.477 149.418 404.676 149.417Z" fill="#374C86"/>
<path d="M365.382 231.572C357.064 231.572 349.277 231.618 341.491 231.557C335.806 231.512 332.003 228.417 331.837 223.878C331.667 219.237 335.724 215.669 341.52 215.662C373.551 215.622 405.583 215.624 437.614 215.663C443.535 215.67 447.361 219.092 447.168 223.917C446.98 228.599 443.393 231.545 437.586 231.554C413.695 231.589 389.804 231.571 365.382 231.572Z" fill="#374C86"/>
<path d="M411.048 198.646C388.04 198.646 365.563 198.671 343.086 198.603C341.028 198.597 338.389 198.668 337.047 197.512C334.863 195.629 331.992 192.597 332.234 190.354C332.518 187.728 335.716 185.325 337.893 183.057C338.446 182.48 339.916 182.694 340.965 182.694C373.353 182.68 405.742 182.575 438.127 182.886C440.862 182.912 444.528 185.146 445.984 187.469C447.138 189.309 446.475 193.615 444.956 195.441C443.354 197.366 439.811 198.388 437.058 198.51C428.58 198.887 420.074 198.646 411.048 198.646Z" fill="#374C86"/>
<path d="M447.149 256.194C446.639 262.161 443.494 264.625 438.014 264.619C405.665 264.588 373.316 264.63 340.967 264.582C335.47 264.574 331.987 261.527 331.852 257.016C331.725 252.747 335.289 249.199 340.372 248.605C341.419 248.483 342.491 248.565 343.551 248.565C374.309 248.564 405.067 248.597 435.825 248.534C441.269 248.523 445.611 249.843 447.149 256.194Z" fill="#374C86"/>
<path d="M357.948 282.189C370.862 282.189 383.245 282.151 395.627 282.206C401.927 282.233 405.616 285.107 405.745 289.861C405.88 294.804 401.958 298.182 395.562 298.212C377.696 298.296 359.829 298.305 341.963 298.212C335.673 298.179 331.653 294.656 331.822 289.798C331.985 285.089 335.716 282.264 342.028 282.192C347.157 282.134 352.287 282.186 357.948 282.189Z" fill="#374C86"/>
<path d="M431.142 115.813C434.644 115.953 437.698 115.742 440.596 116.316C444.948 117.178 447.457 120.278 447.057 124.663C446.634 129.297 443.601 131.828 438.799 131.847C432.436 131.873 426.073 131.86 419.71 131.861C407.691 131.862 395.672 131.878 383.653 131.854C377.166 131.841 373.664 129.22 373.496 124.353C373.319 119.199 377.323 115.851 383.963 115.829C399.517 115.779 415.071 115.813 431.142 115.813Z" fill="#374C86"/>
<path d="M434.556 298.249C425.491 297.711 421.228 293.184 423.811 287.175C426.593 280.705 432.482 282.426 437.59 282.203C441.86 282.016 445.236 283.386 446.762 287.745C448.07 291.478 446.161 295.908 442.269 297.225C439.995 297.994 437.44 297.935 434.556 298.249Z" fill="#374C86"/>
<path d="M350.608 131.459C346.838 131.698 343.483 131.935 340.14 131.818C335.359 131.65 331.905 128.693 331.898 124.55C331.892 120.199 334.172 117.043 338.549 116.352C341.975 115.811 345.844 115.237 348.943 116.319C351.637 117.26 354.487 120.126 355.537 122.817C356.947 126.433 354.601 129.541 350.608 131.459Z" fill="#374C86"/>
<path d="M251.748 32.9761C305.01 32.9755 357.741 32.9661 410.472 33.0069C412.538 33.0085 414.648 33.3016 416.659 33.7862C420.653 34.7485 422.725 37.8822 422.449 41.544C422.133 45.759 419.224 48.4729 414.749 48.9132C413.522 49.034 412.273 48.9389 411.034 48.9389C347.156 48.9394 283.277 48.9394 219.398 48.9394C218.513 48.9394 217.628 48.9543 216.744 48.9349C211.165 48.8129 207.155 45.508 207.197 41.0748C207.237 36.8517 211.48 33.0626 216.712 33.0102C228.213 32.8951 239.715 32.9755 251.748 32.9761Z" fill="#374C86"/>
<path d="M458.718 48.2912C455.017 48.6494 451.7 48.9682 448.39 48.9066C443.435 48.8144 439.982 45.7286 439.722 41.4911C439.482 37.5725 443.013 33.5623 447.536 33.0592C450.312 32.7505 453.175 32.7512 455.952 33.0492C460.208 33.5058 463.68 36.1388 463.715 40.1999C463.738 42.8135 460.746 45.4535 458.718 48.2912Z" fill="#374C86"/>
<path d="M95.6412 34.8837C98.4291 37.9559 100.432 41.4284 97.5886 44.4816C95.5031 46.721 91.9576 47.7873 88.8797 48.8428C87.1512 49.4355 85.0475 49.0176 83.1189 48.9266C78.3454 48.7014 74.3301 45.4231 74.5314 41.3779C74.7566 36.8538 77.6112 33.5419 81.9774 33.2341C86.3639 32.9248 90.8553 34.1053 95.6412 34.8837Z" fill="#374C86"/>
<path d="M51.2086 48.7229C47.7691 48.8895 44.7623 48.9296 41.7554 48.9416C36.9526 48.9608 33.8089 46.2881 33.2227 41.8869C32.6528 37.6073 35.4069 34.3072 39.6097 33.4809C43.1749 32.78 47.0342 32.775 50.6404 33.3024C54.4328 33.857 56.9715 36.7156 57.2637 40.5582C57.5594 44.4474 55.3454 47.1859 51.2086 48.7229Z" fill="#374C86"/>
<path d="M137.743 35.392C142.362 43.5011 139.318 48.8279 130.46 48.9431C128.514 48.9684 126.566 48.9765 124.62 48.9325C119.886 48.8255 117.009 46.2695 116.066 41.7954C115.328 38.2916 118.827 33.5055 123.107 33.3449C127.855 33.1668 132.659 34.4546 137.743 35.392Z" fill="#374C86"/>
</svg>
