<?xml version="1.0" encoding="utf-8"?>
<!-- Generator: Adobe Illustrator 26.0.2, SVG Export Plug-In . SVG Version: 6.00 Build 0)  -->
<svg version="1.1" id="Layer_1" xmlns="http://www.w3.org/2000/svg" xmlns:xlink="http://www.w3.org/1999/xlink" x="0px" y="0px"
	 viewBox="0 0 499 442" style="enable-background:new 0 0 499 442;" xml:space="preserve">
<style type="text/css">
	.st0{fill:#374C86;}
</style>
<path class="st0" d="M0,395C0,279.3,0,163.6,0.4,47.3c1.9-13.5,7.6-24.2,17.1-33c11-10.1,24.3-13.7,39-13.7
	C185.8,0.8,315,0.8,444.3,0.8c1.8,0,3.7,0,5.5,0.1c20.1,1.3,35,10.8,44.1,28.7c2.9,5.7,4.1,12.2,6.1,18.3c0,115.4,0,230.7-0.4,346.7
	c-1,3.7-1.5,6.8-2.4,9.7c-7.7,23.6-26.7,36.8-52.7,36.8c-129.6,0-259.2,0-388.9,0c-2,0-4,0-6-0.2c-22.1-1.9-37.5-13.1-45.8-33.7
	C2.3,403.4,1.3,399.1,0,395z M471.3,417c6.5-5.1,9.9-11.7,9.9-20.1c0-88.5,0-177,0-265.5c0-1.5-0.2-3.1-0.2-4.4
	c-154.7,0-308.9,0-463.3,0c0,2.1,0,3.9,0,5.6c0,87.6,0.2,175.2-0.2,262.8c-0.1,13.6,11.1,26.8,26.4,26.7c137-0.2,274-0.1,411-0.3
	C460.3,422,465.5,419.1,471.3,417z M142.9,108c112.6,0,225.2,0,337.7,0c0.3-0.9,0.4-1.2,0.4-1.6c0-18.6-0.7-37.3,0.2-55.9
	c0.9-18.3-12.4-30.3-28.8-30.2c-114.2,0.5-228.5,0.3-342.7,0.3c-22.4,0-44.7-0.1-67.1,0c-14.2,0-25,11.6-25,26.5
	c0,16.4,0,32.9,0,49.3c0,3.8,0,7.6,0,11.6C59.4,108,100.6,108,142.9,108z"/>
<path class="st0" d="M311,234c3.5,7.7,7,14.9,9.9,22.4c1.1,2.9,2.3,3.7,5.2,3.7c32.7-0.1,65.3-0.1,98,0c8,0,13.6,3.5,15.9,9.6
	c3.7,9.9-3.4,19.3-14.6,19.3c-32.5,0-65,0-97.5,0c-1.7,0-3.3,0-5.1,0c-12.2,39.4-37.9,62-80,58.5c-35-2.9-55.9-25-65.2-58.5
	c-33.9,0-67.7,0-101.5,0c-1.8,0-3.7,0-5.4-0.4c-7.3-1.8-12.1-8-11.6-14.7c0.6-7.5,6.4-13,14.6-13.7c1.5-0.1,3-0.1,4.5-0.1
	c33,0,66,0,99.4,0c10.4-36,33.6-57.4,72-58.5C275.3,200.8,296,212.2,311,234z M252.7,325.9c34.9-2.9,52.5-34.9,47.4-60.4
	c-5-25.2-27.6-43.3-54.2-41.3c-25.5,2-45.5,22.7-46.4,48.7C198.4,302.7,221.7,325.9,252.7,325.9z"/>
<path class="st0" d="M434.2,57.9c8.1,8.6,5.9,19.1-4.3,22.3c-6.4,2-13.7-1.8-15.8-8c-2.1-6.6,1.6-14.2,8.1-16.4
	C426.4,54.3,430.3,55.1,434.2,57.9z"/>
<path class="st0" d="M383.1,57.9c8.1,8.6,5.9,19.1-4.3,22.3c-6.4,2-13.7-1.8-15.8-8c-2.1-6.6,1.6-14.2,8.1-16.4
	C375.3,54.3,379.2,55.1,383.1,57.9z"/>
</svg>
